<?xml version="1.0" encoding="UTF-8"?>
<svg id="Layer_1" data-name="Layer 1" xmlns="http://www.w3.org/2000/svg" viewBox="0 0 595.28 841.89">
  <defs>
    <style>
      .cls-1 {
        fill: #1e4f7a;
      }

      .cls-1, .cls-2, .cls-3 {
        stroke-width: 0px;
      }

      .cls-2 {
        fill: #bfbfbf;
      }

      .cls-3 {
        fill: #fff;
      }
    </style>
  </defs>
  <path class="cls-3" d="M569,310.32l-8.05,24.43-7.86-24.43h-10.8l10.89,32.2-11.65,34.09h9.76l8.61-26.23,8.52,26.23h10.99l-11.65-34.09,10.89-32.2h-9.67ZM505.95,360.7c0,10.6,5.59,16.67,15.81,16.67s15.81-6.07,15.81-16.67v-34.48c0-10.6-5.59-16.67-15.81-16.67s-15.81,6.07-15.81,16.67v34.48ZM516.37,325.56c0-4.73,2.08-6.53,5.39-6.53s5.39,1.79,5.39,6.53v35.8c0,4.73-2.08,6.53-5.39,6.53s-5.39-1.79-5.39-6.53v-35.8h0ZM482.76,319.79c3.69,0,5.3,2.08,5.3,6.82v3.69c0,5.3-2.37,7-6.25,7h-4.08v-17.52h5.03ZM482.38,346.77c4.73,0,6.73,1.9,6.73,8.05v5.78c0,4.92-1.9,6.53-5.39,6.53h-5.96v-20.36h4.64-.01ZM483.05,310.32h-15.72v66.29h16.38c10.42,0,15.81-5.49,15.81-15.72v-5.39c0-7-2.18-12.03-7.77-14.2,4.64-2.18,6.73-6.53,6.73-13.35v-2.37c0-10.22-4.64-15.25-15.43-15.25h0ZM428.42,319.79h17.15v-9.47h-27.55v66.29h10.42v-27.37h13.45v-9.47h-13.45v-19.98h-.01ZM378.62,360.7c0,10.6,5.59,16.67,15.81,16.67s15.81-6.07,15.81-16.67v-34.48c0-10.6-5.59-16.67-15.81-16.67s-15.81,6.07-15.81,16.67v34.48ZM389.04,325.56c0-4.73,2.08-6.53,5.39-6.53s5.39,1.79,5.39,6.53v35.8c0,4.73-2.08,6.53-5.39,6.53s-5.39-1.79-5.39-6.53v-35.8h0ZM325.98,319.79h10.89v56.82h10.42v-56.82h10.89v-9.47h-32.2v9.47h-.01ZM289.81,310.32v50.48c0,10.6,5.3,16.67,15.54,16.67s15.54-6.07,15.54-16.67v-50.48h-9.85v51.13c0,4.73-2.08,6.44-5.39,6.44s-5.39-1.7-5.39-6.44v-51.13h-10.43ZM250.91,360.7c0,10.6,5.59,16.67,15.81,16.67s15.81-6.07,15.81-16.67v-34.48c0-10.6-5.59-16.67-15.81-16.67s-15.81,6.07-15.81,16.67v34.48ZM261.31,325.56c0-4.73,2.08-6.53,5.39-6.53s5.39,1.79,5.39,6.53v35.8c0,4.73-2.08,6.53-5.39,6.53s-5.39-1.79-5.39-6.53v-35.8h0Z"/>
  <path class="cls-3" d="M574.9,402.13h10.1v-5.32h-15.96v37.23h15.96v-5.32h-10.1v-10.91h8.03v-5.32h-8.03v-10.37h0ZM555.55,402.13c2.07,0,2.98,1.17,2.98,3.82v3.67c0,2.98-1.33,3.93-3.51,3.93h-2.28v-11.44h2.82-.01ZM565.07,434.03c-.58-1.38-.63-2.72-.63-4.52v-5.74c0-3.88-.96-6.7-3.88-7.93,2.61-1.23,3.82-3.72,3.82-7.56v-2.93c0-5.74-2.61-8.56-8.67-8.56h-8.82v37.23h5.86v-15.15h2.02c2.66,0,3.82,1.28,3.82,4.73v5.86c0,3.03.21,3.61.53,4.58h5.96-.01ZM532.85,403.41l2.82,18.82h-5.63l2.82-18.82h-.01ZM537.43,396.81h-8.56l-5.96,37.23h5.37l1.02-6.75h7.17l1.02,6.75h5.91l-5.96-37.23h0ZM509.63,434.03h7.77l4.15-37.23h-5.1l-3.03,29.57-2.93-29.57h-5.63l-2.82,29.36-3.14-29.36h-5.68l4.15,37.23h8.03l2.12-19.84,2.12,19.84h-.01ZM481.19,402.13c1.86,0,2.98.96,2.98,3.61v19.36c0,2.66-1.12,3.61-2.98,3.61h-3.3v-26.59h3.3ZM472.04,434.03h9.26c5.86,0,8.72-3.24,8.72-9.21v-18.82c0-5.96-2.88-9.21-8.72-9.21h-9.26v37.23ZM458.54,402.13c2.07,0,2.98,1.17,2.98,3.82v3.67c0,2.98-1.33,3.93-3.51,3.93h-2.28v-11.44h2.82-.01ZM468.07,434.03c-.58-1.38-.63-2.72-.63-4.52v-5.74c0-3.88-.96-6.7-3.88-7.93,2.61-1.23,3.82-3.72,3.82-7.56v-2.93c0-5.74-2.61-8.56-8.67-8.56h-8.82v37.23h5.86v-15.15h2.02c2.66,0,3.82,1.28,3.82,4.73v5.86c0,3.03.21,3.61.53,4.58h5.96-.01ZM435.85,403.41l2.82,18.82h-5.63l2.82-18.82h-.01ZM440.42,396.81h-8.56l-5.96,37.23h5.37l1.02-6.75h7.17l1.02,6.75h5.91l-5.96-37.23h0ZM409.8,418.09h6.65v15.96h5.96v-37.23h-5.96v15.96h-6.65v-15.96h-5.86v37.23h5.86v-15.96ZM378.01,425.47v-3.46c0-3.46,1.17-4.73,3.82-4.73h2.23v8.61c-.11,2.33-1.28,3.24-3.03,3.24-1.86,0-3.03-1.02-3.03-3.67h.01ZM372.17,422.18v3.77c0,5.47,2.18,8.51,6.49,8.51,2.61,0,4.42-1.17,5.42-3.35.11,1.65.26,2.18.53,2.93h5.96c-.58-1.38-.63-2.72-.63-4.52v-12.23h1.54v-5.32h-1.54v-4.15h-5.86v4.15h-2.56c-2.18,0-3.51-.96-3.51-3.93v-2.28c0-2.66,1.12-3.61,2.98-3.61h6.59v-5.32h-6.7c-5.86,0-8.72,3.24-8.72,9.21v.69c0,3.98,1.28,6.49,4.04,7.66-2.88,1.28-4.04,4.04-4.04,7.82v-.03ZM341.65,405.74c0,10.63,11.44,12.07,11.44,19.73,0,2.66-1.17,3.61-3.03,3.61s-3.03-.96-3.03-3.61v-2.66h-5.53v2.28c0,5.96,2.98,9.36,8.72,9.36s8.72-3.4,8.72-9.36c0-10.63-11.44-12.07-11.44-19.73,0-2.66,1.07-3.67,2.93-3.67s2.93,1.02,2.93,3.67v1.54h5.53v-1.17c0-5.96-2.93-9.36-8.61-9.36s-8.61,3.4-8.61,9.36h0ZM323.58,434.03h15.47v-5.32h-9.63v-31.9h-5.86v37.23h.01ZM301.25,425.1c0,5.96,3.14,9.36,8.88,9.36s8.88-3.4,8.88-9.36v-19.36c0-5.96-3.14-9.36-8.88-9.36s-8.88,3.4-8.88,9.36v19.36ZM307.1,405.37c0-2.66,1.17-3.67,3.03-3.67s3.03,1.02,3.03,3.67v20.1c0,2.66-1.17,3.67-3.03,3.67s-3.03-1.02-3.03-3.67v-20.1ZM279.41,425.1c0,5.96,3.14,9.36,8.88,9.36s8.88-3.4,8.88-9.36v-19.36c0-5.96-3.14-9.36-8.88-9.36s-8.88,3.4-8.88,9.36v19.36ZM285.25,405.37c0-2.66,1.17-3.67,3.03-3.67s3.03,1.02,3.03,3.67v20.1c0,2.66-1.17,3.67-3.03,3.67s-3.03-1.02-3.03-3.67v-20.1ZM258.46,402.13h6.12v31.9h5.86v-31.9h6.12v-5.32h-18.08v5.32h-.01Z"/>
  <path class="cls-3" d="M193.95,443H32.83c-5.08,0-9.18-4.12-9.18-9.18v-111.99c0-5.08,4.12-9.18,9.18-9.18h161.12c5.08,0,9.18,4.12,9.18,9.18v111.99c0,5.08-4.12,9.18-9.18,9.18"/>
  <path class="cls-2" d="M203.15,349.12v6.79h-11.82v6.96c0,.98-.79,1.75-1.77,1.75h-21.68c-.99,0-1.77-.79-1.77-1.75v-6.95H61.98v6.95c0,.98-.79,1.75-1.77,1.75h-21.68c-.99,0-1.77-.79-1.77-1.75v-6.95h-10.88v.04h-2.23v-6.86h13.1v-6.4c0-.98.79-1.77,1.77-1.77h21.68c.96,0,1.77.79,1.77,1.77v6.4h104.13v-6.4c0-.98.78-1.77,1.77-1.77h21.68c.96,0,1.77.79,1.77,1.77v6.4"/>
  <polyline class="cls-3" points="145.89 278.04 145.89 305.5 141.5 305.5 141.5 287.39 86.28 287.39 86.28 305.5 81.9 305.5 81.9 278.04"/>
  <rect class="cls-3" x="43.42" y="346.94" width="12.32" height="10.67"/>
  <rect class="cls-3" x="172.2" y="346.94" width="12.32" height="10.67"/>
  <path class="cls-1" d="M151.46,415c-1.37-3.34-2.66-6.37-3.86-9.44-.25-.63-.13-1.4-.18-2.1.71.08,1.44.09,2.12.24.63.15,1.23.45,2.14.79v-5.7c0-1.71-.05-3.43.03-5.14.03-.46.36-1.07.73-1.29l1.25.45c.67.65,1.23,1.41,2.08,2.43,1.32-3.18,2.39-5.94,3.6-8.61.44-.98,1.21-1.81,1.83-2.7.58.88,1.16,1.75,1.73,2.64.17.28.28.59.51,1.12.95-.92,1.83-1.77,2.7-2.64,1.65-1.64,3.26-3.31,4.95-4.89.34-.33,1.04-.63,1.4-.5s.61.84.66,1.32c.11.87.03,1.77.03,2.97.95-.38,1.73-.7,2.49-1.03,2.51-1.03,4.99-2.08,7.5-3.06.44-.17,1.19-.18,1.45.07.28.26.25,1,.13,1.46-.25.88-.66,1.71-1.08,2.78,3.55,0,6.85-.04,10.14.03.69.01,1.36.42,2.03.66-.34.63-.59,1.35-1.04,1.89-.4.5-1.02.84-1.85,1.52,2.02.86,3.61,1.53,5.21,2.19,1.69.7,3.38,1.35,5.04,2.1.44.2.99.74.99,1.12s-.58.84-1.02,1.09c-.79.45-1.68.75-2.73,1.21,2.49,2.49,4.89,4.84,7.23,7.25.45.46.65,1.16.96,1.75-.67.24-1.33.55-2.03.67-.69.12-1.41.03-2.36.03,1.36,3.3,2.66,6.38,3.89,9.5.24.59.16,1.32.24,1.98-.71-.04-1.42,0-2.11-.13-.69-.15-1.32-.47-2.23-.82v9.39c0,.5.08,1.02-.03,1.49-.09.44-.3,1.03-.63,1.19-.33.15-.99-.04-1.28-.33-.71-.69-1.28-1.52-2.14-2.57-1.48,3.59-2.72,6.65-4.04,9.67-.28.66-.88,1.16-1.33,1.74-.49-.59-1.04-1.15-1.46-1.79-.34-.55-.54-1.2-.9-2.04-2.27,2.28-4.44,4.46-6.61,6.63-.36.36-.66.78-1.07,1.03-.42.25-1,.53-1.42.42-.29-.07-.54-.76-.58-1.2-.09-.92-.03-1.87-.03-3.07-3.01,1.24-5.83,2.45-8.69,3.53-.88.34-1.91.33-2.86.49.16-.92.3-1.85.5-2.74.09-.42.29-.8.55-1.5h-7.54c-1.11,0-2.22.07-3.31-.03-.46-.05-1.07-.37-1.28-.75l.46-1.25c.62-.69,1.37-1.27,2.29-2.11-2.98-1.24-5.59-2.33-8.22-3.43-.71-.29-1.48-.51-2.12-.91-.37-.22-.76-.69-.8-1.08-.04-.29.42-.76.76-.94.88-.45,1.82-.79,3.01-1.28-1.82-1.81-3.52-3.51-5.22-5.21-.79-.78-1.62-1.52-2.32-2.36-.34-.41-.62-1.07-.54-1.54.05-.28.86-.53,1.36-.58.87-.09,1.75-.03,2.91-.03M161.09,387.82c-1.2,2.9-2.33,5.68-3.51,8.45-.76,1.85-1.25,1.95-2.68.61-.3-.29-.66-.55-1.19-.99v8.16c0,2.21-1.04,2.99-3.11,2.33l-.38.2c.96,2.32,1.91,4.67,2.89,6.99.87,2.09.18,3.26-2.07,3.5l-.17.25c.33.36.67.76,1.04,1.13,1.79,1.81,3.61,3.59,5.39,5.39,1.17,1.19,1.06,1.75-.41,2.43-.49.22-.95.46-1.6.78,2.65,1.11,5.09,2.14,7.53,3.15,1.99.83,2.31,2.08.96,3.75l-.07.51h8.07c2.08,0,2.79,1,2.15,2.99l.15.53c2.44-1.02,4.83-2,7.21-2.99,3.11-1.29,3.15-1.28,3.28,2.03l.25.33c.4-.37.8-.71,1.17-1.09,1.85-1.83,3.65-3.69,5.51-5.51,1.03-1,1.64-.86,2.24.41.25.51.47,1.04.82,1.77,1.11-2.65,2.1-5.04,3.1-7.44.85-2.06,2.13-2.42,3.82-1.08l.42.03.07-.76c0-2.77-.01-5.53,0-8.3,0-1.79.44-2.07,2.08-1.46.41.15.84.26,1.57.49-1.15-2.74-2.14-5.13-3.13-7.52-.86-2.08-.18-3.17,2.04-3.28l.3-.26c-.36-.4-.71-.79-1.09-1.17-1.83-1.85-3.69-3.65-5.51-5.51-.99-1.03-.84-1.62.45-2.23.51-.24,1.04-.47,1.75-.8-3.15-1.31-6.05-2.49-8.94-3.73-1.33-.57-1.44-1.15-.49-2.2.37-.42.75-.83,1.35-1.48h-8.34c-2.21,0-2.95-1.02-2.24-3.06l-.16-.46c-2.53,1.04-5.06,2.08-7.58,3.13-2.69,1.11-2.78,1.04-2.9-1.9,0-.18-.11-.37-.22-.79-2.1,2.12-4.04,4.08-5.97,6.04-2.02,2.04-2.16,2-3.42-.65l-.46-.67"/>
  <path class="cls-1" d="M161.09,387.82c-1.2,2.9-2.33,5.68-3.51,8.45-.76,1.85-1.25,1.95-2.68.61-.3-.29-.66-.55-1.19-.99v8.16c0,2.21-1.04,2.99-3.11,2.33l-.38.2c.96,2.32,1.91,4.67,2.89,6.99.87,2.09.18,3.26-2.07,3.5l-.17.25c.33.36.67.76,1.04,1.13,1.79,1.81,3.61,3.59,5.39,5.39,1.17,1.19,1.06,1.75-.41,2.43-.49.22-.95.46-1.6.78,2.65,1.11,5.09,2.14,7.53,3.15,1.99.83,2.31,2.08.96,3.75l-.07.51h8.07c2.08,0,2.79,1,2.15,2.99l.15.53c2.44-1.02,4.83-2,7.21-2.99,3.11-1.29,3.15-1.28,3.28,2.03l.25.33c.4-.37.8-.71,1.17-1.09,1.85-1.83,3.65-3.69,5.51-5.51,1.03-1,1.64-.86,2.24.41.25.51.47,1.04.82,1.77,1.11-2.65,2.1-5.04,3.1-7.44.85-2.06,2.13-2.42,3.82-1.08l.42.03.07-.76c0-2.77-.01-5.53,0-8.3,0-1.79.44-2.07,2.08-1.46.41.15.84.26,1.57.49-1.15-2.74-2.14-5.13-3.13-7.52-.86-2.08-.18-3.17,2.04-3.28l.3-.26c-.36-.4-.71-.79-1.09-1.17-1.83-1.85-3.69-3.65-5.51-5.51-.99-1.03-.84-1.62.45-2.23.51-.24,1.04-.47,1.75-.8-3.15-1.31-6.05-2.49-8.94-3.73-1.33-.57-1.44-1.15-.49-2.2.37-.42.75-.83,1.35-1.48h-8.34c-2.21,0-2.95-1.02-2.24-3.06l-.16-.46c-2.53,1.04-5.06,2.08-7.58,3.13-2.69,1.11-2.78,1.04-2.9-1.9,0-.18-.11-.37-.22-.79-2.1,2.12-4.04,4.08-5.97,6.04-2.02,2.04-2.16,2-3.42-.65l-.46-.67"/>
  <path class="cls-2" d="M151.46,415c-1.37-3.34-2.66-6.37-3.86-9.44-.25-.63-.13-1.4-.18-2.11.71.08,1.44.09,2.12.25.63.15,1.23.45,2.14.79v-5.7c0-1.71-.05-3.43.03-5.14.03-.46.36-1.07.73-1.29l1.25.45c.67.65,1.23,1.41,2.08,2.43,1.32-3.18,2.39-5.94,3.6-8.63.44-.98,1.21-1.81,1.83-2.7.58.88,1.16,1.75,1.71,2.64.17.28.28.59.53,1.12.95-.92,1.83-1.77,2.7-2.64,1.65-1.64,3.26-3.3,4.95-4.89.34-.33,1.04-.63,1.38-.5.36.15.61.84.66,1.32.11.87.03,1.75.03,2.97.95-.38,1.71-.7,2.49-1.02,2.49-1.03,4.99-2.08,7.5-3.06.44-.17,1.19-.18,1.45.07.26.26.25.99.12,1.45-.25.88-.66,1.71-1.08,2.78,3.55,0,6.85-.04,10.14.03.67,0,1.36.42,2.03.66-.34.63-.59,1.35-1.03,1.89-.4.5-1.02.84-1.85,1.5,2.03.86,3.61,1.53,5.21,2.19,1.68.7,3.38,1.35,5.04,2.1.44.2.99.74.99,1.12s-.58.84-1.02,1.09c-.79.45-1.68.75-2.73,1.21,2.49,2.49,4.89,4.84,7.23,7.25.45.46.65,1.17.96,1.77-.67.24-1.33.55-2.03.67-.69.12-1.41.03-2.36.03,1.36,3.3,2.66,6.38,3.89,9.5.24.59.16,1.32.22,1.98-.7-.04-1.42,0-2.11-.13-.69-.15-1.32-.47-2.23-.82v9.39c0,.5.08,1.02-.03,1.49-.09.44-.3,1.03-.63,1.19-.33.15-1-.04-1.28-.32-.7-.69-1.28-1.52-2.14-2.57-1.48,3.59-2.72,6.65-4.04,9.67-.28.65-.88,1.16-1.33,1.74-.49-.59-1.04-1.15-1.46-1.79-.34-.54-.54-1.2-.9-2.03-2.27,2.27-4.44,4.44-6.61,6.63-.36.36-.66.78-1.07,1.03-.42.26-1,.53-1.42.42-.29-.07-.54-.76-.58-1.2-.09-.92-.03-1.87-.03-3.06-3.01,1.24-5.83,2.44-8.69,3.53-.88.34-1.91.33-2.86.49.16-.92.3-1.83.5-2.74.09-.42.29-.82.55-1.5h-7.54c-1.11,0-2.22.07-3.31-.04-.46-.05-1.07-.37-1.28-.75-.15-.26.17-.94.46-1.25.62-.69,1.36-1.27,2.29-2.11-2.97-1.24-5.59-2.33-8.22-3.43-.71-.29-1.46-.51-2.12-.91-.37-.22-.76-.69-.8-1.08-.03-.29.42-.76.76-.95.88-.45,1.81-.78,3.01-1.28-1.81-1.81-3.52-3.51-5.22-5.21-.78-.78-1.62-1.52-2.32-2.36-.34-.41-.62-1.07-.54-1.54.04-.28.86-.53,1.36-.58.87-.09,1.75-.03,2.91-.03"/>
  <path class="cls-3" d="M161.09,387.82l.46.67c1.24,2.65,1.38,2.69,3.42.65,1.95-1.95,3.88-3.92,5.97-6.03.13.42.22.61.22.79.12,2.94.21,3.01,2.9,1.9,2.52-1.04,5.05-2.08,7.58-3.13l.16.46c-.71,2.04.04,3.06,2.24,3.06h8.34c-.59.65-.96,1.06-1.35,1.48-.95,1.06-.84,1.64.47,2.2,2.89,1.24,5.8,2.41,8.94,3.73-.71.33-1.23.57-1.74.82-1.29.61-1.44,1.2-.45,2.23,1.81,1.87,3.67,3.68,5.5,5.53.38.38.74.78,1.09,1.17l-.3.26c-2.22.11-2.91,1.21-2.06,3.28.99,2.39,1.99,4.77,3.13,7.52-.73-.22-1.15-.34-1.56-.49-1.66-.59-2.07-.33-2.08,1.48-.01,2.77,0,5.53,0,8.3l-.07.76-.42-.03c-1.7-1.34-2.97-.98-3.82,1.08-.99,2.4-1.99,4.77-3.1,7.44-.33-.73-.57-1.24-.82-1.77-.61-1.28-1.21-1.41-2.24-.41-1.86,1.81-3.68,3.67-5.51,5.5-.38.38-.78.73-1.17,1.09l-.26-.33c-.15-3.31-.17-3.32-3.28-2.03-2.39.99-4.77,1.98-7.21,2.99l-.15-.53c.64-2-.07-3.01-2.14-3.01h-8.07l.05-.51c1.35-1.67,1.03-2.92-.96-3.75-2.44-1.02-4.88-2.04-7.53-3.15.65-.32,1.12-.55,1.6-.78,1.48-.67,1.58-1.24.42-2.43-1.78-1.81-3.6-3.6-5.39-5.39-.37-.37-.71-.78-1.04-1.13l.17-.25c2.25-.24,2.94-1.4,2.07-3.5-.96-2.33-1.93-4.67-2.89-6.99l.38-.2c2.08.64,3.13-.14,3.13-2.35v-8.15c.54.44.88.7,1.19.99,1.41,1.35,1.91,1.24,2.68-.61,1.16-2.77,2.29-5.55,3.5-8.45M183.72,410.32c0-3.13-2.69-5.83-5.82-5.86-3.19-.03-5.96,2.78-5.9,5.95.07,3.15,2.8,5.8,5.91,5.78,3.14-.04,5.82-2.74,5.82-5.87"/>
  <path class="cls-2" d="M183.72,410.32c0,3.13-2.68,5.83-5.82,5.87-3.11.04-5.84-2.62-5.91-5.78-.07-3.18,2.7-5.97,5.9-5.95,3.14.03,5.82,2.73,5.82,5.86M181.93,410.36c0-2.35-1.69-4.08-4.04-4.09s-4.08,1.69-4.09,4.04c-.01,2.35,1.69,4.08,4.04,4.09,2.35,0,4.08-1.7,4.09-4.04"/>
  <path class="cls-3" d="M181.93,410.36c0,2.33-1.74,4.05-4.09,4.04-2.33,0-4.05-1.74-4.04-4.09,0-2.33,1.74-4.05,4.09-4.04,2.33,0,4.05,1.74,4.04,4.09"/>
  <path class="cls-2" d="M81.12,388.13c2-.49,3.55-1.06,5.13-1.2,2.04-.18,4.13.05,6.19-.07,3.59-.21,5.82,1.73,7.82,4.39.53.7,1.82,1.15,2.77,1.16,8.9.08,17.81.05,26.71.01,1.7,0,3.23-.11,3.27,2.28.04,2.28-1.35,2.52-3.09,2.53-8.9.03-17.81.09-26.7.08-1.49,0-2.56-.11-3.18,1.81-.73,2.22-5.22,3.94-7.74,3.65-1.75-.21-3.55,0-5.33-.09-1.65-.11-3.28-.37-4.97-.58.55,2.45-2.1,3.1-4.17,4.31-2.4,1.41-4.84,2.78-7.04,4.44-2.26,1.7-4.75,2.04-7.39,2.08-2.06.03-4.13.11-6.19-.04-3.1-.22-5.75.28-8.26,2.48-1.15,1-3.5,1.19-5.18.92-4.33-.65-5.8-.09-6.86,3.92-.71,2.68-1.41,5.1-4.05,6.7-.75.46-.73,2.32-.92,3.56-.5,3.13-1.85,6.23.74,9.27,1.06,1.25.33,2.73-1.68,2.76-3.1.03-6.19,0-9.27,0-1.78,0-2.48-.92-2.48-2.65,0-8.32-.21-16.66.08-24.98.08-2.26,1.45-4.55,2.57-6.66,1.35-2.53,3.34-4.76,4.51-7.36.75-1.68,1.19-3.98.66-5.65-1.85-5.87-.21-7.94,6.67-8.26,11.67-.54,23.37-.47,35.07-.65,2.33-.04,4.68.01,7.03,0,2.27-.03,4.64-.34,5.32,1.83M43.78,390.72c-3.32.38-6.28.88-9.26,1-2.4.09-2.45,1.24-2.55,3.23-.11,2.22-.78,4.54-1.74,6.56-1.2,2.52-3.3,4.62-4.37,7.16-1.6,3.81-3.18,7.78-3.77,11.83-.63,4.38-.13,8.93-.12,13.41,0,1.49-.29,3.09.13,4.46.25.83,1.57,1.73,2.51,1.85,1.31.17,2.07-.65,1.94-2.31-.18-2.4-.44-4.96.15-7.24.79-3.07.21-6.96,4.13-8.68.5-.21.74-1.21.94-1.9,2.37-7.77,5.13-9.62,13.12-8.89.82.07,1.99-.17,2.48-.73,2.11-2.4,4.77-2.68,7.69-2.59,2.99.09,6.01.18,9-.03,1.5-.11,3.07-.67,4.41-1.41,2.35-1.31,4.59-2.84,6.78-4.43.75-.54,1.45-1.45,1.69-2.33,1.04-3.82,6.04-5.46,9.11-2.89,1.91,1.61,6.3,2.1,8.32.63.83-.61,1.56-1.97,1.52-2.94-.04-.87-1.23-2.39-1.91-2.39-2.89,0-5.92.03-8.64.87-2.55.79-4.54,1.09-6.78-.61-1.15-.87-2.74-1.57-4.15-1.6-10.3-.13-20.6-.07-30.59-.07"/>
  <path class="cls-3" d="M43.78,390.72c9.98,0,20.29-.07,30.59.07,1.4.01,3.01.73,4.15,1.6,2.24,1.71,4.25,1.4,6.78.61,2.72-.84,5.74-.87,8.64-.87.67,0,1.86,1.52,1.91,2.39.05.98-.69,2.35-1.52,2.94-2,1.46-6.41.98-8.32-.63-3.07-2.57-8.07-.94-9.11,2.89-.24.88-.94,1.79-1.69,2.33-2.18,1.6-4.43,3.13-6.78,4.43-1.33.74-2.9,1.31-4.41,1.41-2.98.21-5.99.12-9,.03-2.9-.09-5.58.18-7.69,2.59-.49.55-1.66.79-2.48.73-7.99-.73-10.75,1.12-13.12,8.89-.21.69-.44,1.68-.94,1.9-3.92,1.71-3.34,5.61-4.13,8.68-.58,2.28-.33,4.84-.15,7.24.13,1.66-.63,2.48-1.94,2.31-.94-.12-2.24-1.02-2.51-1.85-.42-1.37-.13-2.97-.13-4.46,0-4.48-.53-9.03.12-13.41.59-4.05,2.18-8.02,3.77-11.83,1.07-2.55,3.18-4.64,4.37-7.16.96-2.02,1.64-4.34,1.74-6.56.09-1.99.16-3.14,2.55-3.23,2.98-.12,5.94-.62,9.26-1"/>
</svg>