<?xml version="1.0" encoding="UTF-8"?>
<svg id="Layer_1" data-name="Layer 1" xmlns="http://www.w3.org/2000/svg" viewBox="0 0 595.28 841.89">
  <defs>
    <style>
      .cls-1 {
        fill: #1e4f7a;
        stroke-width: 0px;
      }
    </style>
  </defs>
  <path class="cls-1" d="M517.88,321.13l-11.42,34.66-11.15-34.66h-15.32l15.45,45.68-16.52,48.37h13.84l12.23-37.21,12.09,37.21h15.58l-16.52-48.37,15.45-45.68h-13.7ZM428.43,392.61c0,15.05,7.93,23.65,22.44,23.65s22.44-8.6,22.44-23.65v-48.9c0-15.05-7.93-23.65-22.44-23.65s-22.44,8.6-22.44,23.65v48.9ZM443.21,342.76c0-6.72,2.96-9.27,7.66-9.27s7.66,2.55,7.66,9.27v50.78c0,6.72-2.96,9.27-7.66,9.27s-7.66-2.55-7.66-9.27v-50.78ZM395.53,334.57c5.24,0,7.52,2.96,7.52,9.67v5.24c0,7.52-3.36,9.94-8.87,9.94h-5.78v-24.85h7.12ZM395,372.86c6.72,0,9.54,2.69,9.54,11.42v8.2c0,6.99-2.69,9.27-7.66,9.27h-8.46v-28.88h6.58ZM395.94,321.13h-22.3v94.04h23.24c14.78,0,22.44-7.79,22.44-22.3v-7.66c0-9.94-3.09-17.06-11.02-20.15,6.58-3.09,9.54-9.27,9.54-18.94v-3.36c0-14.51-6.58-21.63-21.9-21.63ZM318.44,334.57h24.32v-13.43h-39.1v94.04h14.78v-38.83h19.08v-13.43h-19.08v-28.35ZM247.78,392.61c0,15.05,7.93,23.65,22.44,23.65s22.44-8.6,22.44-23.65v-48.9c0-15.05-7.93-23.65-22.44-23.65s-22.44,8.6-22.44,23.65v48.9ZM262.56,342.76c0-6.72,2.96-9.27,7.66-9.27s7.66,2.55,7.66,9.27v50.78c0,6.72-2.96,9.27-7.66,9.27s-7.66-2.55-7.66-9.27v-50.78ZM173.11,334.57h15.45v80.61h14.78v-80.61h15.45v-13.43h-45.68v13.43ZM121.8,321.13v71.61c0,15.05,7.52,23.65,22.03,23.65s22.03-8.6,22.03-23.65v-71.61h-13.97v72.55c0,6.72-2.96,9.14-7.66,9.14s-7.66-2.42-7.66-9.14v-72.55h-14.78ZM66.6,392.61c0,15.05,7.93,23.65,22.44,23.65s22.44-8.6,22.44-23.65v-48.9c0-15.05-7.93-23.65-22.44-23.65s-22.44,8.6-22.44,23.65v48.9ZM81.38,342.76c0-6.72,2.96-9.27,7.66-9.27s7.66,2.55,7.66,9.27v50.78c0,6.72-2.96,9.27-7.66,9.27s-7.66-2.55-7.66-9.27v-50.78Z"/>
  <path class="cls-1" d="M526.25,451.38h14.34v-7.54h-22.63v52.81h22.63v-7.54h-14.34v-15.47h11.39v-7.54h-11.39v-14.71ZM498.8,451.38c2.94,0,4.23,1.66,4.23,5.43v5.21c0,4.23-1.89,5.58-4.98,5.58h-3.24v-16.22h4ZM512.31,496.65c-.83-1.96-.91-3.85-.91-6.41v-8.15c0-5.51-1.36-9.51-5.51-11.24,3.7-1.74,5.43-5.28,5.43-10.71v-4.15c0-8.15-3.7-12.15-12.3-12.15h-12.52v52.81h8.3v-21.5h2.87c3.77,0,5.43,1.81,5.43,6.72v8.3c0,4.3.3,5.13.75,6.49h8.45ZM466.6,453.19l4,26.71h-8l4-26.71ZM473.09,443.84h-12.15l-8.45,52.81h7.62l1.43-9.58h10.19l1.43,9.58h8.37l-8.45-52.81ZM433.65,496.65h11.02l5.89-52.81h-7.24l-4.3,41.95-4.15-41.95h-8l-4,41.65-4.45-41.65h-8.07l5.89,52.81h11.39l3.02-28.14,3.02,28.14ZM393.3,451.38c2.64,0,4.23,1.36,4.23,5.13v27.46c0,3.77-1.58,5.13-4.23,5.13h-4.68v-37.72h4.68ZM380.33,496.65h13.13c8.3,0,12.37-4.6,12.37-13.05v-26.71c0-8.45-4.07-13.05-12.37-13.05h-13.13v52.81ZM361.18,451.38c2.94,0,4.23,1.66,4.23,5.43v5.21c0,4.23-1.89,5.58-4.98,5.58h-3.24v-16.22h4ZM374.68,496.65c-.83-1.96-.91-3.85-.91-6.41v-8.15c0-5.51-1.36-9.51-5.51-11.24,3.7-1.74,5.43-5.28,5.43-10.71v-4.15c0-8.15-3.7-12.15-12.3-12.15h-12.52v52.81h8.3v-21.5h2.87c3.77,0,5.43,1.81,5.43,6.72v8.3c0,4.3.3,5.13.75,6.49h8.45ZM328.98,453.19l4,26.71h-8l4-26.71ZM335.47,443.84h-12.15l-8.45,52.81h7.62l1.43-9.58h10.19l1.43,9.58h8.37l-8.45-52.81ZM292.02,474.02h9.43v22.63h8.45v-52.81h-8.45v22.63h-9.43v-22.63h-8.3v52.81h8.3v-22.63ZM246.93,484.51v-4.9c0-4.9,1.66-6.71,5.43-6.71h3.17v12.22c-.15,3.32-1.81,4.6-4.3,4.6-2.64,0-4.3-1.43-4.3-5.21ZM238.63,479.83v5.36c0,7.77,3.09,12.07,9.2,12.07,3.7,0,6.26-1.66,7.7-4.75.15,2.34.38,3.09.75,4.15h8.45c-.83-1.96-.91-3.85-.91-6.41v-17.35h2.19v-7.54h-2.19v-5.89h-8.3v5.89h-3.62c-3.09,0-4.98-1.36-4.98-5.58v-3.24c0-3.77,1.58-5.13,4.23-5.13h9.36v-7.54h-9.51c-8.3,0-12.37,4.6-12.37,13.05v.98c0,5.66,1.81,9.21,5.73,10.86-4.07,1.81-5.73,5.73-5.73,11.09ZM195.34,456.51c0,15.09,16.22,17.13,16.22,27.99,0,3.77-1.66,5.13-4.3,5.13s-4.3-1.36-4.3-5.13v-3.77h-7.85v3.24c0,8.45,4.23,13.28,12.37,13.28s12.37-4.83,12.37-13.28c0-15.09-16.22-17.13-16.22-27.99,0-3.77,1.51-5.21,4.15-5.21s4.15,1.43,4.15,5.21v2.19h7.85v-1.66c0-8.45-4.15-13.28-12.22-13.28s-12.22,4.83-12.22,13.28ZM169.7,496.65h21.96v-7.54h-13.66v-45.27h-8.3v52.81ZM138.03,483.98c0,8.45,4.45,13.28,12.6,13.28s12.6-4.83,12.6-13.28v-27.46c0-8.45-4.45-13.28-12.6-13.28s-12.6,4.83-12.6,13.28v27.46ZM146.33,455.99c0-3.77,1.66-5.21,4.3-5.21s4.3,1.43,4.3,5.21v28.52c0,3.77-1.66,5.21-4.3,5.21s-4.3-1.43-4.3-5.21v-28.52ZM107.04,483.98c0,8.45,4.45,13.28,12.6,13.28s12.6-4.83,12.6-13.28v-27.46c0-8.45-4.45-13.28-12.6-13.28s-12.6,4.83-12.6,13.28v27.46ZM115.34,455.99c0-3.77,1.66-5.21,4.3-5.21s4.3,1.43,4.3,5.21v28.52c0,3.77-1.66,5.21-4.3,5.21s-4.3-1.43-4.3-5.21v-28.52ZM77.32,451.38h8.68v45.27h8.3v-45.27h8.68v-7.54h-25.65v7.54Z"/>
</svg>