<?xml version="1.0" encoding="UTF-8"?>
<svg id="Layer_1" data-name="Layer 1" xmlns="http://www.w3.org/2000/svg" viewBox="0 0 595.28 841.89">
  <defs>
    <style>
      .cls-1 {
        fill: #1e4f7a;
      }

      .cls-1, .cls-2 {
        stroke-width: 0px;
      }

      .cls-2 {
        fill: #bfbfbf;
      }
    </style>
  </defs>
  <path class="cls-1" d="M475.27,577.94H105.49c-11.64,0-21.07-9.43-21.07-21.07v-257.02c0-11.64,9.43-21.07,21.07-21.07h369.77c11.64,0,21.08,9.43,21.08,21.07v257.02c0,11.64-9.44,21.07-21.08,21.07"/>
  <path class="cls-2" d="M496.34,362.5v15.59h-.66v.03h-26.46v15.95c0,2.23-1.82,4.04-4.04,4.04h-49.77c-2.26,0-4.05-1.8-4.05-4.04v-15.95h-238.98v15.95c0,2.23-1.83,4.04-4.05,4.04h-49.77c-2.26,0-4.06-1.8-4.06-4.04v-15.95h-24.96v.1h-5.11v-15.73h30.07v-14.69c0-2.23,1.8-4.05,4.06-4.05h49.77c2.22,0,4.05,1.82,4.05,4.05v14.69h238.98v-14.69c0-2.23,1.8-4.05,4.05-4.05h49.77c2.22,0,4.04,1.82,4.04,4.05v14.69"/>
  <polyline class="cls-1" points="364.94 199.37 364.94 262.38 354.87 262.38 354.87 220.81 228.13 220.81 228.13 262.38 218.06 262.38 218.06 199.37"/>
  <rect class="cls-1" x="129.78" y="357.48" width="28.27" height="24.49"/>
  <rect class="cls-1" x="425.35" y="357.48" width="28.27" height="24.49"/>
  <path class="cls-1" d="M377.72,513.69c-3.15-7.65-6.11-14.62-8.86-21.67-.56-1.44-.3-3.2-.41-4.83,1.64.17,3.3.2,4.89.55,1.45.34,2.81,1.04,4.89,1.83v-13.07c0-3.94-.12-7.88.07-11.8.05-1.05.81-2.46,1.67-2.96l2.88,1.02c1.56,1.47,2.83,3.24,4.79,5.56,3.03-7.3,5.49-13.61,8.25-19.78,1.01-2.25,2.79-4.16,4.22-6.22,1.32,2.02,2.66,4.02,3.95,6.06.4.63.64,1.37,1.19,2.56,2.17-2.12,4.21-4.07,6.21-6.06,3.78-3.75,7.49-7.59,11.35-11.25.79-.75,2.4-1.46,3.2-1.14s1.39,1.93,1.52,3.03c.24,2,.07,4.04.07,6.81,2.17-.89,3.95-1.61,5.72-2.35,5.74-2.36,11.44-4.79,17.22-7.04,1-.38,2.73-.43,3.34.16.63.61.58,2.29.29,3.35-.57,2.02-1.51,3.93-2.5,6.39,8.13,0,15.7-.09,23.27.07,1.57.03,3.11.98,4.66,1.51-.77,1.47-1.35,3.08-2.38,4.34-.92,1.16-2.32,1.94-4.23,3.47,4.65,1.96,8.3,3.51,11.95,5.03,3.86,1.6,7.76,3.08,11.56,4.83,1,.45,2.27,1.69,2.27,2.56,0,.86-1.34,1.94-2.34,2.5-1.83,1.03-3.84,1.74-6.25,2.78,5.73,5.71,11.24,11.11,16.59,16.65,1.03,1.06,1.49,2.68,2.21,4.04-1.55.54-3.06,1.28-4.65,1.55-1.58.27-3.24.06-5.43.06,3.13,7.57,6.13,14.64,8.93,21.78.54,1.37.37,3.01.54,4.54-1.62-.08-3.28.02-4.84-.3-1.57-.32-3.03-1.09-5.12-1.87v21.55c0,1.14.18,2.32-.06,3.41-.21,1-.69,2.37-1.45,2.71-.75.34-2.28-.1-2.94-.75-1.62-1.57-2.93-3.47-4.9-5.9-3.4,8.23-6.24,15.25-9.26,22.19-.64,1.5-2.02,2.68-3.06,4-1.13-1.36-2.41-2.64-3.35-4.12-.8-1.26-1.24-2.75-2.05-4.68-5.21,5.22-10.2,10.22-15.17,15.22-.82.81-1.52,1.8-2.46,2.37-.97.59-2.3,1.21-3.27.98-.66-.16-1.24-1.76-1.34-2.77-.2-2.13-.05-4.29-.05-7.04-6.91,2.84-13.37,5.62-19.94,8.11-2.04.77-4.38.77-6.58,1.12.37-2.11.69-4.23,1.15-6.31.2-.96.67-1.85,1.26-3.44h-17.3c-2.53,0-5.09.16-7.6-.07-1.06-.11-2.45-.84-2.93-1.71l1.06-2.88c1.43-1.58,3.14-2.92,5.27-4.84-6.83-2.85-12.84-5.37-18.87-7.88-1.64-.68-3.38-1.18-4.89-2.08-.86-.5-1.75-1.58-1.85-2.49-.08-.67.96-1.75,1.76-2.16,2.02-1.04,4.17-1.8,6.9-2.93-4.17-4.16-8.09-8.06-11.99-11.96-1.8-1.79-3.72-3.48-5.33-5.43-.77-.94-1.43-2.44-1.24-3.53.11-.63,1.98-1.22,3.11-1.34,1.99-.21,4.03-.06,6.69-.06M399.82,451.31c-2.75,6.65-5.37,13.03-8.04,19.4-1.75,4.23-2.88,4.47-6.15,1.39-.71-.68-1.5-1.26-2.74-2.27v18.73q0,7.59-7.15,5.37l-.87.45c2.2,5.34,4.4,10.7,6.62,16.06q3,7.21-4.75,8.02l-.4.57c.76.83,1.55,1.75,2.4,2.61,4.11,4.14,8.28,8.22,12.37,12.38,2.69,2.73,2.42,4.02-.95,5.57-1.11.51-2.19,1.06-3.67,1.79,6.09,2.55,11.68,4.9,17.28,7.23q6.85,2.84,2.21,8.59l-.14,1.17h18.51q7.15,0,4.93,6.88l.34,1.22c5.61-2.33,11.09-4.61,16.57-6.88,7.16-2.97,7.22-2.93,7.55,4.65l.58.76c.92-.84,1.85-1.65,2.7-2.5,4.23-4.21,8.39-8.48,12.66-12.65,2.37-2.3,3.76-1.98,5.14.95.57,1.19,1.1,2.39,1.87,4.05,2.54-6.09,4.83-11.57,7.1-17.06q2.94-7.08,8.79-2.48l.97.06.16-1.75c0-6.34-.04-12.69,0-19.03.02-4.12.99-4.75,4.79-3.37.95.34,1.93.59,3.59,1.11-2.62-6.3-4.91-11.78-7.18-17.26q-2.97-7.14,4.7-7.54l.7-.61c-.83-.91-1.65-1.83-2.51-2.7-4.21-4.23-8.49-8.39-12.65-12.66-2.27-2.35-1.93-3.72,1.03-5.12,1.19-.55,2.38-1.1,4.01-1.85-7.22-3.01-13.91-5.73-20.53-8.57-3.06-1.3-3.3-2.64-1.11-5.07.86-.96,1.74-1.9,3.09-3.39h-19.15q-7.6,0-5.14-7.01l-.35-1.05c-5.82,2.39-11.62,4.77-17.42,7.16-6.17,2.55-6.38,2.41-6.65-4.35-.02-.43-.24-.84-.52-1.82-4.81,4.86-9.25,9.37-13.72,13.86-4.65,4.68-4.98,4.61-7.83-1.49l-1.05-1.55"/>
  <path class="cls-1" d="M399.82,451.31c-2.75,6.65-5.37,13.03-8.04,19.4-1.75,4.23-2.88,4.47-6.15,1.39-.71-.68-1.5-1.26-2.74-2.27v18.73q0,7.59-7.15,5.37l-.87.45c2.2,5.34,4.4,10.7,6.62,16.06q3,7.21-4.75,8.02l-.4.57c.76.83,1.55,1.75,2.4,2.61,4.11,4.14,8.28,8.22,12.37,12.38,2.69,2.73,2.42,4.02-.95,5.57-1.11.51-2.19,1.06-3.67,1.79,6.09,2.55,11.68,4.9,17.28,7.23q6.85,2.84,2.21,8.59l-.14,1.17h18.51q7.15,0,4.93,6.88l.34,1.22c5.61-2.33,11.09-4.61,16.57-6.88,7.16-2.97,7.22-2.93,7.55,4.65l.58.76c.92-.84,1.85-1.65,2.7-2.5,4.23-4.21,8.39-8.48,12.66-12.65,2.37-2.3,3.76-1.98,5.14.95.57,1.19,1.1,2.39,1.87,4.05,2.54-6.09,4.83-11.57,7.1-17.06q2.94-7.08,8.79-2.48l.97.06.16-1.75c0-6.34-.04-12.69,0-19.03.02-4.12.99-4.75,4.79-3.37.95.34,1.93.59,3.59,1.11-2.62-6.3-4.91-11.78-7.18-17.26q-2.97-7.14,4.7-7.54l.7-.61c-.83-.91-1.65-1.83-2.51-2.7-4.21-4.23-8.49-8.39-12.65-12.66-2.27-2.35-1.93-3.72,1.03-5.12,1.19-.55,2.38-1.1,4.01-1.85-7.22-3.01-13.91-5.73-20.53-8.57-3.06-1.3-3.3-2.64-1.11-5.07.86-.96,1.74-1.9,3.09-3.39h-19.15q-7.6,0-5.14-7.01l-.35-1.05c-5.82,2.39-11.62,4.77-17.42,7.16-6.17,2.55-6.38,2.41-6.65-4.35-.02-.43-.24-.84-.52-1.82-4.81,4.86-9.25,9.37-13.72,13.86-4.65,4.68-4.98,4.61-7.83-1.49l-1.05-1.55"/>
  <path class="cls-2" d="M377.72,513.69c-3.16-7.65-6.11-14.61-8.86-21.67-.57-1.45-.3-3.21-.41-4.84,1.63.17,3.3.2,4.89.56,1.45.33,2.81,1.03,4.89,1.82v-13.07c0-3.94-.12-7.88.07-11.8.05-1.05.82-2.45,1.67-2.96l2.88,1.02c1.56,1.48,2.83,3.24,4.79,5.57,3.02-7.31,5.48-13.62,8.25-19.79,1.01-2.25,2.79-4.16,4.22-6.22,1.32,2.02,2.66,4.03,3.95,6.06.4.63.64,1.37,1.2,2.56,2.17-2.12,4.21-4.07,6.21-6.06,3.78-3.75,7.49-7.58,11.35-11.25.78-.75,2.4-1.46,3.19-1.14.81.32,1.39,1.93,1.52,3.04.23,1.99.07,4.04.07,6.8,2.17-.89,3.95-1.61,5.72-2.34,5.73-2.36,11.44-4.79,17.22-7.04,1-.39,2.73-.44,3.34.16.62.6.57,2.28.28,3.34-.56,2.02-1.5,3.93-2.49,6.39,8.13,0,15.7-.09,23.27.07,1.56.03,3.11.98,4.65,1.51-.77,1.46-1.35,3.07-2.37,4.34-.92,1.15-2.32,1.94-4.23,3.46,4.65,1.96,8.3,3.51,11.95,5.03,3.86,1.61,7.76,3.08,11.56,4.83,1,.45,2.27,1.69,2.27,2.56,0,.86-1.34,1.95-2.34,2.5-1.83,1.03-3.84,1.74-6.25,2.78,5.73,5.72,11.25,11.11,16.6,16.65,1.03,1.06,1.49,2.69,2.21,4.04-1.56.54-3.06,1.27-4.66,1.55-1.57.26-3.23.05-5.42.05,3.13,7.57,6.12,14.64,8.93,21.78.54,1.37.37,3.02.53,4.54-1.61-.08-3.27.02-4.84-.3-1.57-.33-3.04-1.1-5.12-1.88v21.55c0,1.14.19,2.32-.05,3.41-.22,1-.69,2.37-1.45,2.71-.75.34-2.29-.1-2.95-.74-1.61-1.58-2.92-3.48-4.89-5.91-3.4,8.23-6.24,15.25-9.26,22.19-.64,1.49-2.02,2.67-3.06,4-1.13-1.37-2.41-2.64-3.36-4.13-.79-1.25-1.23-2.75-2.05-4.67-5.21,5.21-10.19,10.22-15.17,15.22-.81.81-1.51,1.8-2.45,2.37-.98.59-2.31,1.21-3.28.98-.65-.16-1.24-1.76-1.33-2.77-.2-2.13-.06-4.29-.06-7.04-6.91,2.83-13.37,5.61-19.94,8.11-2.04.77-4.37.77-6.57,1.12.36-2.11.69-4.22,1.14-6.3.21-.96.67-1.86,1.27-3.44h-17.3c-2.54,0-5.09.16-7.6-.08-1.07-.11-2.45-.84-2.93-1.71-.33-.6.38-2.14,1.06-2.88,1.43-1.58,3.13-2.92,5.26-4.84-6.82-2.84-12.84-5.37-18.87-7.88-1.63-.68-3.37-1.18-4.89-2.08-.85-.5-1.75-1.58-1.84-2.48-.07-.67.96-1.75,1.76-2.17,2.02-1.04,4.16-1.8,6.9-2.93-4.16-4.15-8.08-8.06-11.99-11.96-1.8-1.79-3.72-3.49-5.32-5.42-.78-.95-1.43-2.45-1.24-3.54.1-.63,1.98-1.22,3.11-1.34,1.99-.21,4.03-.06,6.69-.06"/>
  <path class="cls-1" d="M399.82,451.31l1.05,1.54c2.86,6.1,3.19,6.17,7.83,1.49,4.47-4.48,8.91-8.99,13.72-13.85.29.98.5,1.39.52,1.82.26,6.75.49,6.9,6.66,4.35,5.79-2.4,11.59-4.77,17.41-7.16l.35,1.05q-2.46,7.02,5.14,7.01c6.08,0,12.15,0,19.15,0-1.35,1.48-2.22,2.42-3.08,3.39-2.19,2.43-1.95,3.77,1.1,5.07,6.63,2.83,13.3,5.55,20.53,8.56-1.62.76-2.82,1.3-4,1.86-2.97,1.38-3.31,2.77-1.03,5.11,4.16,4.28,8.43,8.44,12.64,12.67.86.86,1.68,1.79,2.52,2.69l-.7.61q-7.66.4-4.71,7.54c2.28,5.49,4.56,10.96,7.18,17.26-1.66-.51-2.64-.77-3.58-1.11-3.81-1.38-4.76-.74-4.79,3.38-.04,6.34,0,12.69,0,19.03l-.16,1.75-.97-.07q-5.86-4.59-8.78,2.48c-2.28,5.49-4.57,10.97-7.11,17.06-.76-1.66-1.3-2.86-1.86-4.05-1.39-2.93-2.78-3.25-5.14-.95-4.28,4.16-8.44,8.43-12.66,12.64-.87.87-1.79,1.66-2.7,2.51l-.59-.76c-.32-7.59-.39-7.63-7.55-4.65-5.48,2.27-10.96,4.55-16.57,6.87l-.34-1.21q2.22-6.9-4.92-6.89c-6.15,0-12.31,0-18.51,0l.13-1.17q4.66-5.77-2.2-8.58c-5.61-2.33-11.2-4.68-17.29-7.23,1.48-.73,2.57-1.28,3.67-1.79,3.38-1.55,3.63-2.83.96-5.56-4.09-4.16-8.25-8.25-12.37-12.39-.86-.86-1.65-1.78-2.4-2.6l.4-.57q7.74-.82,4.75-8.03c-2.22-5.36-4.42-10.72-6.62-16.06l.87-.44q7.18,2.21,7.17-5.38c0-5.96,0-11.91,0-18.72,1.23,1.01,2.03,1.6,2.74,2.27,3.25,3.07,4.38,2.84,6.15-1.4,2.66-6.37,5.28-12.75,8.03-19.39M451.76,502.96c-.02-7.18-6.16-13.37-13.36-13.44-7.32-.07-13.69,6.38-13.54,13.65.16,7.23,6.41,13.33,13.56,13.25,7.19-.08,13.35-6.3,13.34-13.46"/>
  <path class="cls-2" d="M451.76,502.96c.02,7.16-6.15,13.38-13.34,13.46-7.15.08-13.4-6.01-13.56-13.25-.16-7.28,6.22-13.72,13.54-13.65,7.2.07,13.35,6.25,13.36,13.44M447.63,503.03c.02-5.39-3.89-9.35-9.26-9.37-5.39-.03-9.35,3.88-9.38,9.25-.03,5.39,3.89,9.36,9.25,9.38,5.38.02,9.36-3.9,9.38-9.26"/>
  <path class="cls-1" d="M447.63,503.03c-.02,5.36-4,9.28-9.38,9.26-5.36-.02-9.28-4-9.25-9.38.02-5.37,3.99-9.28,9.38-9.25,5.37.02,9.28,3.99,9.26,9.37"/>
  <path class="cls-2" d="M216.29,452.02c4.6-1.11,8.16-2.41,11.79-2.75,4.69-.44,9.47.12,14.19-.16,8.25-.49,13.36,3.97,17.94,10.08,1.21,1.61,4.19,2.63,6.36,2.65,20.42.18,40.85.12,61.28.03,3.9-.02,7.41-.25,7.5,5.25.1,5.22-3.07,5.79-7.08,5.81-20.42.05-40.85.22-61.28.19-3.43,0-5.86-.23-7.28,4.14-1.67,5.1-11.98,9.05-17.78,8.37-4.03-.47-8.16.02-12.22-.21-3.79-.23-7.55-.85-11.42-1.32,1.27,5.63-4.81,7.13-9.56,9.91-5.5,3.23-11.1,6.38-16.17,10.22-5.17,3.9-10.9,4.7-16.95,4.77-4.73.06-9.48.23-14.19-.1-7.11-.51-13.2.63-18.96,5.69-2.63,2.31-8.02,2.71-11.9,2.13-9.94-1.48-13.31-.21-15.74,8.98-1.62,6.15-3.25,11.71-9.29,15.38-1.73,1.05-1.66,5.32-2.13,8.16-1.16,7.18-4.23,14.29,1.7,21.27,2.43,2.88.76,6.28-3.85,6.32-7.1.06-14.19-.02-21.29-.02-4.09,0-5.69-2.12-5.68-6.08.02-19.11-.48-38.24.18-57.33.17-5.17,3.33-10.45,5.89-15.28,3.09-5.82,7.65-10.92,10.34-16.89,1.73-3.84,2.73-9.13,1.52-12.96-4.25-13.46-.47-18.22,15.31-18.96,26.79-1.24,53.65-1.09,80.48-1.48,5.37-.08,10.76.03,16.13-.02,5.21-.06,10.65-.77,12.18,4.22M130.61,457.98c-7.62.87-14.41,2.02-21.24,2.29-5.5.21-5.64,2.84-5.86,7.42-.24,5.09-1.78,10.41-3.99,15.05-2.74,5.77-7.57,10.59-10.03,16.44-3.67,8.76-7.31,17.86-8.67,27.15-1.47,10.06-.29,20.5-.26,30.79,0,3.44-.66,7.09.3,10.24.58,1.9,3.59,3.95,5.74,4.23,3,.4,4.75-1.48,4.45-5.3-.44-5.52-1.01-11.37.32-16.62,1.8-7.05.48-15.99,9.47-19.92,1.14-.49,1.68-2.78,2.15-4.35,5.45-17.84,11.77-22.06,30.12-20.4,1.87.16,4.57-.38,5.69-1.66,4.84-5.5,10.97-6.15,17.64-5.94,6.88.21,13.79.42,20.64-.07,3.45-.25,7.06-1.54,10.12-3.24,5.4-3.01,10.54-6.52,15.55-10.17,1.71-1.24,3.32-3.34,3.87-5.35,2.4-8.78,13.87-12.54,20.92-6.62,4.38,3.68,14.48,4.82,19.09,1.45,1.89-1.38,3.58-4.51,3.47-6.76-.1-1.99-2.82-5.48-4.37-5.48-6.64,0-13.58.07-19.82,2.01-5.83,1.81-10.41,2.52-15.57-1.4-2.63-1.99-6.31-3.61-9.53-3.65-23.64-.3-47.29-.16-70.19-.16"/>
  <path class="cls-1" d="M130.61,457.98c22.9,0,46.55-.14,70.19.16,3.22.04,6.9,1.66,9.53,3.65,5.16,3.92,9.74,3.21,15.57,1.4,6.24-1.94,13.18-2.01,19.82-2.01,1.56,0,4.28,3.48,4.37,5.48.11,2.25-1.57,5.38-3.47,6.76-4.61,3.37-14.71,2.23-19.09-1.45-7.05-5.92-18.53-2.16-20.92,6.62-.55,2.02-2.16,4.11-3.87,5.35-5.01,3.65-10.16,7.16-15.55,10.17-3.06,1.7-6.66,2.99-10.12,3.24-6.85.49-13.76.28-20.64.07-6.67-.21-12.8.44-17.64,5.94-1.12,1.28-3.82,1.82-5.69,1.66-18.35-1.66-24.67,2.56-30.12,20.4-.47,1.57-1.01,3.86-2.15,4.35-8.99,3.93-7.66,12.87-9.47,19.92-1.33,5.25-.76,11.1-.32,16.62.3,3.81-1.45,5.69-4.45,5.3-2.15-.28-5.16-2.34-5.74-4.23-.96-3.15-.29-6.8-.3-10.24-.02-10.28-1.2-20.73.26-30.79,1.36-9.29,4.99-18.4,8.67-27.15,2.46-5.85,7.29-10.67,10.03-16.44,2.21-4.64,3.75-9.96,3.99-15.05.21-4.58.35-7.21,5.86-7.42,6.83-.27,13.62-1.42,21.24-2.29"/>
</svg>