<?xml version="1.0" encoding="UTF-8"?>
<svg id="Layer_1" data-name="Layer 1" xmlns="http://www.w3.org/2000/svg" viewBox="0 0 595.28 841.89">
  <defs>
    <style>
      .cls-1 {
        fill: #1e4f7a;
      }

      .cls-1, .cls-2 {
        stroke-width: 0px;
      }

      .cls-2 {
        fill: #bfbfbf;
      }
    </style>
  </defs>
  <path class="cls-1" d="M502.98,362.04l-6.1,18.52-5.96-18.52h-8.19l8.26,24.41-8.83,25.85h7.4l6.53-19.89,6.46,19.89h8.33l-8.83-25.85,8.26-24.41h-7.32ZM455.17,400.24c0,8.04,4.24,12.64,11.99,12.64s11.99-4.6,11.99-12.64v-26.14c0-8.04-4.24-12.64-11.99-12.64s-11.99,4.6-11.99,12.64v26.14ZM463.07,373.6c0-3.59,1.58-4.95,4.09-4.95s4.09,1.36,4.09,4.95v27.14c0,3.59-1.58,4.95-4.09,4.95s-4.09-1.36-4.09-4.95v-27.14ZM437.59,369.22c2.8,0,4.02,1.58,4.02,5.17v2.8c0,4.02-1.8,5.31-4.74,5.31h-3.09v-13.28h3.81ZM437.3,389.68c3.59,0,5.1,1.44,5.1,6.1v4.38c0,3.73-1.44,4.95-4.09,4.95h-4.52v-15.44h3.52ZM437.81,362.04h-11.92v50.26h12.42c7.9,0,11.99-4.16,11.99-11.92v-4.09c0-5.31-1.65-9.12-5.89-10.77,3.52-1.65,5.1-4.95,5.1-10.12v-1.8c0-7.75-3.52-11.56-11.7-11.56ZM396.39,369.22h13v-7.18h-20.89v50.26h7.9v-20.75h10.2v-7.18h-10.2v-15.15ZM358.63,400.24c0,8.04,4.24,12.64,11.99,12.64s11.99-4.6,11.99-12.64v-26.14c0-8.04-4.24-12.64-11.99-12.64s-11.99,4.6-11.99,12.64v26.14ZM366.53,373.6c0-3.59,1.58-4.95,4.09-4.95s4.09,1.36,4.09,4.95v27.14c0,3.59-1.58,4.95-4.09,4.95s-4.09-1.36-4.09-4.95v-27.14ZM318.72,369.22h8.26v43.08h7.9v-43.08h8.26v-7.18h-24.41v7.18ZM291.3,362.04v38.27c0,8.04,4.02,12.64,11.78,12.64s11.78-4.6,11.78-12.64v-38.27h-7.47v38.77c0,3.59-1.58,4.88-4.09,4.88s-4.09-1.29-4.09-4.88v-38.77h-7.9ZM261.8,400.24c0,8.04,4.24,12.64,11.99,12.64s11.99-4.6,11.99-12.64v-26.14c0-8.04-4.24-12.64-11.99-12.64s-11.99,4.6-11.99,12.64v26.14ZM269.69,373.6c0-3.59,1.58-4.95,4.09-4.95s4.09,1.36,4.09,4.95v27.14c0,3.59-1.58,4.95-4.09,4.95s-4.09-1.36-4.09-4.95v-27.14Z"/>
  <path class="cls-1" d="M507.45,431.65h7.66v-4.03h-12.1v28.23h12.1v-4.03h-7.66v-8.27h6.09v-4.03h-6.09v-7.86ZM492.78,431.65c1.57,0,2.26.89,2.26,2.9v2.78c0,2.26-1.01,2.98-2.66,2.98h-1.73v-8.67h2.14ZM500,455.84c-.44-1.05-.48-2.06-.48-3.43v-4.35c0-2.94-.73-5.08-2.94-6.01,1.98-.93,2.9-2.82,2.9-5.73v-2.22c0-4.35-1.98-6.49-6.57-6.49h-6.69v28.23h4.44v-11.49h1.53c2.02,0,2.9.97,2.9,3.59v4.44c0,2.3.16,2.74.4,3.47h4.52ZM475.57,432.62l2.14,14.27h-4.27l2.14-14.27ZM479.04,427.62h-6.49l-4.52,28.23h4.07l.77-5.12h5.44l.77,5.12h4.48l-4.52-28.23ZM457.96,455.84h5.89l3.15-28.23h-3.87l-2.3,22.42-2.22-22.42h-4.27l-2.14,22.26-2.38-22.26h-4.31l3.15,28.23h6.09l1.61-15.04,1.61,15.04ZM436.4,431.65c1.41,0,2.26.73,2.26,2.74v14.68c0,2.02-.85,2.74-2.26,2.74h-2.5v-20.16h2.5ZM429.46,455.84h7.02c4.44,0,6.61-2.46,6.61-6.98v-14.27c0-4.52-2.18-6.98-6.61-6.98h-7.02v28.23ZM419.23,431.65c1.57,0,2.26.89,2.26,2.9v2.78c0,2.26-1.01,2.98-2.66,2.98h-1.73v-8.67h2.14ZM426.45,455.84c-.44-1.05-.48-2.06-.48-3.43v-4.35c0-2.94-.73-5.08-2.94-6.01,1.98-.93,2.9-2.82,2.9-5.73v-2.22c0-4.35-1.98-6.49-6.57-6.49h-6.69v28.23h4.44v-11.49h1.53c2.02,0,2.9.97,2.9,3.59v4.44c0,2.3.16,2.74.4,3.47h4.52ZM402.02,432.62l2.14,14.27h-4.27l2.14-14.27ZM405.49,427.62h-6.49l-4.52,28.23h4.07l.77-5.12h5.44l.77,5.12h4.48l-4.52-28.23ZM382.27,443.75h5.04v12.1h4.52v-28.23h-4.52v12.1h-5.04v-12.1h-4.44v28.23h4.44v-12.1ZM358.17,449.35v-2.62c0-2.62.89-3.59,2.9-3.59h1.69v6.53c-.08,1.77-.97,2.46-2.3,2.46-1.41,0-2.3-.77-2.3-2.78ZM353.74,446.85v2.86c0,4.15,1.65,6.45,4.92,6.45,1.98,0,3.35-.89,4.11-2.54.08,1.25.2,1.65.4,2.22h4.52c-.44-1.05-.48-2.06-.48-3.43v-9.27h1.17v-4.03h-1.17v-3.15h-4.44v3.15h-1.94c-1.65,0-2.66-.73-2.66-2.98v-1.73c0-2.02.85-2.74,2.26-2.74h5v-4.03h-5.08c-4.44,0-6.61,2.46-6.61,6.98v.52c0,3.02.97,4.92,3.06,5.81-2.18.97-3.06,3.06-3.06,5.93ZM330.6,434.39c0,8.06,8.67,9.15,8.67,14.96,0,2.02-.89,2.74-2.3,2.74s-2.3-.73-2.3-2.74v-2.02h-4.19v1.73c0,4.52,2.26,7.1,6.61,7.1s6.61-2.58,6.61-7.1c0-8.06-8.67-9.15-8.67-14.96,0-2.02.81-2.78,2.22-2.78s2.22.77,2.22,2.78v1.17h4.19v-.89c0-4.52-2.22-7.1-6.53-7.1s-6.53,2.58-6.53,7.1ZM316.9,455.84h11.73v-4.03h-7.3v-24.19h-4.44v28.23ZM299.97,449.07c0,4.52,2.38,7.1,6.73,7.1s6.73-2.58,6.73-7.1v-14.68c0-4.52-2.38-7.1-6.73-7.1s-6.73,2.58-6.73,7.1v14.68ZM304.41,434.11c0-2.02.89-2.78,2.3-2.78s2.3.77,2.3,2.78v15.24c0,2.02-.89,2.78-2.3,2.78s-2.3-.77-2.3-2.78v-15.24ZM283.41,449.07c0,4.52,2.38,7.1,6.73,7.1s6.73-2.58,6.73-7.1v-14.68c0-4.52-2.38-7.1-6.73-7.1s-6.73,2.58-6.73,7.1v14.68ZM287.84,434.11c0-2.02.89-2.78,2.3-2.78s2.3.77,2.3,2.78v15.24c0,2.02-.89,2.78-2.3,2.78s-2.3-.77-2.3-2.78v-15.24ZM267.53,431.65h4.64v24.19h4.44v-24.19h4.64v-4.03h-13.71v4.03Z"/>
  <path class="cls-1" d="M218.62,462.64h-122.16c-3.85,0-6.96-3.12-6.96-6.96v-84.91c0-3.85,3.12-6.96,6.96-6.96h122.16c3.85,0,6.96,3.12,6.96,6.96v84.91c0,3.85-3.12,6.96-6.96,6.96"/>
  <path class="cls-2" d="M225.59,391.46v5.15h-.22s-8.74.01-8.74.01v5.27c0,.74-.6,1.33-1.34,1.33h-16.44c-.75,0-1.34-.6-1.34-1.33v-5.27h-78.95v5.27c0,.74-.6,1.33-1.34,1.33h-16.44c-.75,0-1.34-.6-1.34-1.33v-5.27h-8.25v.03h-1.69v-5.2h9.93v-4.85c0-.74.6-1.34,1.34-1.34h16.44c.73,0,1.34.6,1.34,1.34v4.85h78.95v-4.85c0-.74.59-1.34,1.34-1.34h16.44c.73,0,1.34.6,1.34,1.34v4.85"/>
  <polyline class="cls-1" points="182.18 337.57 182.18 358.39 178.85 358.39 178.85 344.66 136.98 344.66 136.98 358.39 133.66 358.39 133.66 337.57"/>
  <rect class="cls-1" x="104.49" y="389.81" width="9.34" height="8.09"/>
  <rect class="cls-1" x="202.13" y="389.81" width="9.34" height="8.09"/>
  <path class="cls-1" d="M186.4,441.41c-1.04-2.53-2.02-4.83-2.93-7.16-.19-.48-.1-1.06-.14-1.59.54.06,1.09.07,1.61.18.48.11.93.34,1.62.6v-4.32c0-1.3-.04-2.6.02-3.9.02-.35.27-.81.55-.98l.95.34c.51.49.93,1.07,1.58,1.84,1-2.41,1.81-4.5,2.73-6.53.33-.74.92-1.37,1.39-2.05.44.67.88,1.33,1.31,2,.13.21.21.45.39.85.72-.7,1.39-1.34,2.05-2,1.25-1.24,2.47-2.51,3.75-3.71.26-.25.79-.48,1.06-.38s.46.64.5,1c.08.66.02,1.34.02,2.25.72-.29,1.31-.53,1.89-.78,1.9-.78,3.78-1.58,5.69-2.32.33-.13.9-.14,1.1.05.21.2.19.76.1,1.11-.19.67-.5,1.3-.82,2.11,2.69,0,5.19-.03,7.69.02.52.01,1.03.32,1.54.5-.26.48-.45,1.02-.79,1.43-.3.38-.77.64-1.4,1.15,1.53.65,2.74,1.16,3.95,1.66,1.28.53,2.56,1.02,3.82,1.59.33.15.75.56.75.85,0,.29-.44.64-.77.83-.6.34-1.27.57-2.07.92,1.89,1.89,3.71,3.67,5.48,5.5.34.35.49.88.73,1.33-.51.18-1.01.42-1.54.51-.52.09-1.07.02-1.79.02,1.03,2.5,2.02,4.84,2.95,7.2.18.45.12,1,.18,1.5-.54-.03-1.08,0-1.6-.1-.52-.11-1-.36-1.69-.62v7.12c0,.38.06.77-.02,1.13-.07.33-.23.78-.48.9-.25.11-.75-.03-.97-.25-.54-.52-.97-1.15-1.62-1.95-1.12,2.72-2.06,5.04-3.06,7.33-.21.5-.67.88-1.01,1.32-.37-.45-.79-.87-1.11-1.36-.26-.42-.41-.91-.68-1.55-1.72,1.73-3.37,3.38-5.01,5.03-.27.27-.5.59-.81.78-.32.19-.76.4-1.08.32-.22-.05-.41-.58-.44-.91-.07-.7-.02-1.42-.02-2.33-2.28.94-4.42,1.86-6.59,2.68-.67.26-1.45.25-2.17.37.12-.7.23-1.4.38-2.08.07-.32.22-.61.42-1.14h-5.72c-.84,0-1.68.05-2.51-.02-.35-.04-.81-.28-.97-.57l.35-.95c.47-.52,1.04-.96,1.74-1.6-2.26-.94-4.24-1.77-6.23-2.6-.54-.22-1.12-.39-1.61-.69-.28-.17-.58-.52-.61-.82-.03-.22.32-.58.58-.71.67-.34,1.38-.6,2.28-.97-1.38-1.37-2.67-2.66-3.96-3.95-.6-.59-1.23-1.15-1.76-1.79-.26-.31-.47-.81-.41-1.17.04-.21.65-.4,1.03-.44.66-.07,1.33-.02,2.21-.02M193.7,420.8c-.91,2.2-1.77,4.31-2.66,6.41-.58,1.4-.95,1.48-2.03.46-.23-.22-.5-.42-.9-.75v6.19q0,2.51-2.36,1.77l-.29.15c.73,1.76,1.45,3.54,2.19,5.3q.99,2.38-1.57,2.65l-.13.19c.25.27.51.58.79.86,1.36,1.37,2.74,2.72,4.09,4.09.89.9.8,1.33-.31,1.84-.37.17-.72.35-1.21.59,2.01.84,3.86,1.62,5.71,2.39q2.26.94.73,2.84l-.05.39h6.12q2.36,0,1.63,2.27l.11.4c1.85-.77,3.66-1.52,5.47-2.27,2.36-.98,2.39-.97,2.49,1.54l.19.25c.3-.28.61-.54.89-.83,1.4-1.39,2.77-2.8,4.18-4.18.78-.76,1.24-.65,1.7.31.19.39.36.79.62,1.34.84-2.01,1.59-3.82,2.35-5.64q.97-2.34,2.9-.82l.32.02.05-.58c0-2.1-.01-4.19,0-6.29,0-1.36.33-1.57,1.58-1.11.31.11.64.2,1.19.37-.87-2.08-1.62-3.89-2.37-5.7q-.98-2.36,1.55-2.49l.23-.2c-.27-.3-.54-.6-.83-.89-1.39-1.4-2.8-2.77-4.18-4.18-.75-.78-.64-1.23.34-1.69.39-.18.79-.36,1.33-.61-2.39-.99-4.59-1.89-6.78-2.83-1.01-.43-1.09-.87-.37-1.67.28-.32.57-.63,1.02-1.12h-6.32q-2.51,0-1.7-2.32l-.12-.35c-1.92.79-3.84,1.58-5.75,2.37-2.04.84-2.11.79-2.2-1.44,0-.14-.08-.28-.17-.6-1.59,1.61-3.06,3.09-4.53,4.58-1.53,1.55-1.64,1.52-2.59-.49l-.35-.51"/>
  <path class="cls-1" d="M193.7,420.8c-.91,2.2-1.77,4.31-2.66,6.41-.58,1.4-.95,1.48-2.03.46-.23-.22-.5-.42-.9-.75v6.19q0,2.51-2.36,1.77l-.29.15c.73,1.76,1.45,3.54,2.19,5.3q.99,2.38-1.57,2.65l-.13.19c.25.27.51.58.79.86,1.36,1.37,2.74,2.72,4.09,4.09.89.9.8,1.33-.31,1.84-.37.17-.72.35-1.21.59,2.01.84,3.86,1.62,5.71,2.39q2.26.94.73,2.84l-.05.39h6.12q2.36,0,1.63,2.27l.11.4c1.85-.77,3.66-1.52,5.47-2.27,2.36-.98,2.39-.97,2.49,1.54l.19.25c.3-.28.61-.54.89-.83,1.4-1.39,2.77-2.8,4.18-4.18.78-.76,1.24-.65,1.7.31.19.39.36.79.62,1.34.84-2.01,1.59-3.82,2.35-5.64q.97-2.34,2.9-.82l.32.02.05-.58c0-2.1-.01-4.19,0-6.29,0-1.36.33-1.57,1.58-1.11.31.11.64.2,1.19.37-.87-2.08-1.62-3.89-2.37-5.7q-.98-2.36,1.55-2.49l.23-.2c-.27-.3-.54-.6-.83-.89-1.39-1.4-2.8-2.77-4.18-4.18-.75-.78-.64-1.23.34-1.69.39-.18.79-.36,1.33-.61-2.39-.99-4.59-1.89-6.78-2.83-1.01-.43-1.09-.87-.37-1.67.28-.32.57-.63,1.02-1.12h-6.32q-2.51,0-1.7-2.32l-.12-.35c-1.92.79-3.84,1.58-5.75,2.37-2.04.84-2.11.79-2.2-1.44,0-.14-.08-.28-.17-.6-1.59,1.61-3.06,3.09-4.53,4.58-1.53,1.55-1.64,1.52-2.59-.49l-.35-.51"/>
  <path class="cls-2" d="M186.4,441.41c-1.04-2.53-2.02-4.83-2.93-7.16-.19-.48-.1-1.06-.14-1.6.54.06,1.09.07,1.61.19.48.11.93.34,1.62.6v-4.32c0-1.3-.04-2.6.02-3.9.02-.35.27-.81.55-.98l.95.34c.51.49.93,1.07,1.58,1.84,1-2.41,1.81-4.5,2.73-6.54.33-.74.92-1.37,1.39-2.05.44.67.88,1.33,1.3,2,.13.21.21.45.4.85.72-.7,1.39-1.34,2.05-2,1.25-1.24,2.47-2.5,3.75-3.71.26-.25.79-.48,1.05-.38.27.11.46.64.5,1,.08.66.02,1.33.02,2.25.72-.29,1.3-.53,1.89-.77,1.89-.78,3.78-1.58,5.69-2.32.33-.13.9-.14,1.1.05.2.2.19.75.09,1.1-.19.67-.5,1.3-.82,2.11,2.69,0,5.19-.03,7.69.02.51,0,1.03.32,1.54.5-.26.48-.45,1.02-.78,1.43-.3.38-.77.64-1.4,1.14,1.54.65,2.74,1.16,3.95,1.66,1.27.53,2.56,1.02,3.82,1.59.33.15.75.56.75.85,0,.29-.44.64-.77.83-.6.34-1.27.57-2.07.92,1.89,1.89,3.71,3.67,5.48,5.5.34.35.49.89.73,1.34-.51.18-1.01.42-1.54.51-.52.09-1.07.02-1.79.02,1.03,2.5,2.02,4.84,2.95,7.2.18.45.12,1,.17,1.5-.53-.03-1.08,0-1.6-.1-.52-.11-1-.36-1.69-.62v7.12c0,.38.06.77-.02,1.13-.07.33-.23.78-.48.9-.25.11-.76-.03-.97-.24-.53-.52-.97-1.15-1.62-1.95-1.12,2.72-2.06,5.04-3.06,7.33-.21.49-.67.88-1.01,1.32-.37-.45-.79-.87-1.11-1.36-.26-.41-.41-.91-.68-1.54-1.72,1.72-3.37,3.37-5.01,5.03-.27.27-.5.59-.81.78-.32.2-.76.4-1.08.32-.22-.05-.41-.58-.44-.91-.07-.7-.02-1.42-.02-2.32-2.28.94-4.42,1.85-6.59,2.68-.67.26-1.45.25-2.17.37.12-.7.23-1.39.38-2.08.07-.32.22-.62.42-1.14h-5.72c-.84,0-1.68.05-2.51-.03-.35-.04-.81-.28-.97-.57-.11-.2.13-.71.35-.95.47-.52,1.03-.96,1.74-1.6-2.25-.94-4.24-1.77-6.23-2.6-.54-.22-1.11-.39-1.61-.69-.28-.17-.58-.52-.61-.82-.02-.22.32-.58.58-.72.67-.34,1.37-.59,2.28-.97-1.37-1.37-2.67-2.66-3.96-3.95-.59-.59-1.23-1.15-1.76-1.79-.26-.31-.47-.81-.41-1.17.03-.21.65-.4,1.03-.44.66-.07,1.33-.02,2.21-.02"/>
  <path class="cls-1" d="M193.7,420.8l.35.51c.94,2.01,1.05,2.04,2.59.49,1.48-1.48,2.94-2.97,4.53-4.57.1.32.17.46.17.6.09,2.23.16,2.28,2.2,1.44,1.91-.79,3.83-1.58,5.75-2.37l.12.35q-.81,2.32,1.7,2.32c2.01,0,4.01,0,6.32,0-.45.49-.73.8-1.02,1.12-.72.8-.64,1.24.36,1.67,2.19.94,4.4,1.83,6.78,2.83-.54.25-.93.43-1.32.62-.98.46-1.09.91-.34,1.69,1.37,1.42,2.78,2.79,4.17,4.19.29.29.56.59.83.89l-.23.2q-2.53.13-1.56,2.49c.75,1.81,1.51,3.62,2.37,5.7-.55-.17-.87-.26-1.18-.37-1.26-.45-1.57-.25-1.58,1.12-.01,2.1,0,4.19,0,6.29l-.05.58-.32-.02q-1.93-1.52-2.9.82c-.75,1.82-1.51,3.62-2.35,5.64-.25-.55-.43-.94-.62-1.34-.46-.97-.92-1.07-1.7-.31-1.41,1.37-2.79,2.78-4.18,4.17-.29.29-.59.55-.89.83l-.2-.25c-.11-2.51-.13-2.52-2.49-1.54-1.81.75-3.62,1.5-5.47,2.27l-.11-.4q.73-2.28-1.62-2.28c-2.03,0-4.07,0-6.12,0l.04-.39q1.54-1.9-.73-2.84c-1.85-.77-3.7-1.55-5.71-2.39.49-.24.85-.42,1.21-.59,1.12-.51,1.2-.94.32-1.84-1.35-1.37-2.73-2.73-4.09-4.09-.28-.28-.54-.59-.79-.86l.13-.19q2.56-.27,1.57-2.65c-.73-1.77-1.46-3.54-2.19-5.3l.29-.15q2.37.73,2.37-1.78c0-1.97,0-3.94,0-6.18.41.33.67.53.9.75,1.07,1.02,1.45.94,2.03-.46.88-2.1,1.74-4.21,2.65-6.41M210.86,437.86c0-2.37-2.04-4.42-4.41-4.44-2.42-.02-4.52,2.11-4.47,4.51.05,2.39,2.12,4.4,4.48,4.38,2.38-.03,4.41-2.08,4.41-4.45"/>
  <path class="cls-2" d="M210.86,437.86c0,2.37-2.03,4.42-4.41,4.45-2.36.03-4.43-1.99-4.48-4.38-.05-2.41,2.05-4.53,4.47-4.51,2.38.02,4.41,2.07,4.41,4.44M209.5,437.89c0-1.78-1.28-3.09-3.06-3.1-1.78-.01-3.09,1.28-3.1,3.06-.01,1.78,1.28,3.09,3.06,3.1,1.78,0,3.09-1.29,3.1-3.06"/>
  <path class="cls-1" d="M209.5,437.89c0,1.77-1.32,3.07-3.1,3.06-1.77,0-3.07-1.32-3.06-3.1,0-1.77,1.32-3.07,3.1-3.06,1.77,0,3.07,1.32,3.06,3.1"/>
  <path class="cls-2" d="M133.07,421.04c1.52-.37,2.69-.8,3.89-.91,1.55-.14,3.13.04,4.69-.05,2.72-.16,4.41,1.31,5.93,3.33.4.53,1.38.87,2.1.88,6.75.06,13.5.04,20.25.01,1.29,0,2.45-.08,2.48,1.73.03,1.73-1.02,1.91-2.34,1.92-6.75.02-13.5.07-20.24.06-1.13,0-1.94-.08-2.41,1.37-.55,1.68-3.96,2.99-5.87,2.77-1.33-.16-2.69,0-4.04-.07-1.25-.08-2.49-.28-3.77-.44.42,1.86-1.59,2.35-3.16,3.27-1.82,1.07-3.67,2.11-5.34,3.37-1.71,1.29-3.6,1.55-5.6,1.58-1.56.02-3.13.08-4.69-.03-2.35-.17-4.36.21-6.26,1.88-.87.76-2.65.9-3.93.7-3.28-.49-4.4-.07-5.2,2.97-.54,2.03-1.07,3.87-3.07,5.08-.57.35-.55,1.76-.7,2.7-.38,2.37-1.4,4.72.56,7.03.8.95.25,2.07-1.27,2.09-2.35.02-4.69,0-7.03,0-1.35,0-1.88-.7-1.88-2.01,0-6.31-.16-12.63.06-18.94.06-1.71,1.1-3.45,1.95-5.05,1.02-1.92,2.53-3.61,3.42-5.58.57-1.27.9-3.02.5-4.28-1.4-4.45-.16-6.02,5.06-6.26,8.85-.41,17.72-.36,26.59-.49,1.77-.03,3.55.01,5.33,0,1.72-.02,3.52-.26,4.03,1.39M104.76,423c-2.52.29-4.76.67-7.02.76-1.82.07-1.86.94-1.93,2.45-.08,1.68-.59,3.44-1.32,4.97-.91,1.91-2.5,3.5-3.31,5.43-1.21,2.89-2.41,5.9-2.86,8.97-.48,3.32-.1,6.77-.09,10.17,0,1.13-.22,2.34.1,3.38.19.63,1.19,1.31,1.9,1.4.99.13,1.57-.49,1.47-1.75-.14-1.82-.33-3.76.11-5.49.6-2.33.16-5.28,3.13-6.58.38-.16.56-.92.71-1.44,1.8-5.89,3.89-7.29,9.95-6.74.62.05,1.51-.13,1.88-.55,1.6-1.82,3.62-2.03,5.83-1.96,2.27.07,4.56.14,6.82-.02,1.14-.08,2.33-.51,3.34-1.07,1.78-.99,3.48-2.15,5.14-3.36.57-.41,1.1-1.1,1.28-1.77.79-2.9,4.58-4.14,6.91-2.19,1.45,1.22,4.78,1.59,6.31.48.63-.46,1.18-1.49,1.15-2.23-.03-.66-.93-1.81-1.45-1.81-2.19,0-4.49.02-6.55.66-1.93.6-3.44.83-5.14-.46-.87-.66-2.08-1.19-3.15-1.21-7.81-.1-15.62-.05-23.19-.05"/>
  <path class="cls-1" d="M104.76,423c7.57,0,15.38-.05,23.19.05,1.06.01,2.28.55,3.15,1.21,1.7,1.3,3.22,1.06,5.14.46,2.06-.64,4.35-.66,6.55-.66.51,0,1.41,1.15,1.45,1.81.04.74-.52,1.78-1.15,2.23-1.52,1.11-4.86.74-6.31-.48-2.33-1.95-6.12-.71-6.91,2.19-.18.67-.71,1.36-1.28,1.77-1.65,1.21-3.36,2.37-5.14,3.36-1.01.56-2.2.99-3.34,1.07-2.26.16-4.54.09-6.82.02-2.2-.07-4.23.14-5.83,1.96-.37.42-1.26.6-1.88.55-6.06-.55-8.15.85-9.95,6.74-.16.52-.33,1.27-.71,1.44-2.97,1.3-2.53,4.25-3.13,6.58-.44,1.73-.25,3.67-.11,5.49.1,1.26-.48,1.88-1.47,1.75-.71-.09-1.7-.77-1.9-1.4-.32-1.04-.1-2.25-.1-3.38,0-3.4-.4-6.85.09-10.17.45-3.07,1.65-6.08,2.86-8.97.81-1.93,2.41-3.52,3.31-5.43.73-1.53,1.24-3.29,1.32-4.97.07-1.51.12-2.38,1.93-2.45,2.26-.09,4.5-.47,7.02-.76"/>
</svg>